<svg width="8" height="16" viewBox="0 0 8 16" fill="none" xmlns="http://www.w3.org/2000/svg">
<path fill-rule="evenodd" clip-rule="evenodd" d="M4.00003 2.85835L6.05003 4.90835C6.37503 5.23335 6.90003 5.23335 7.22503 4.90835C7.55003 4.58335 7.55003 4.05835 7.22503 3.73335L4.58337 1.08335C4.25837 0.75835 3.73337 0.75835 3.40837 1.08335L0.766699 3.73335C0.441699 4.05835 0.441699 4.58335 0.766699 4.90835C1.0917 5.23335 1.6167 5.23335 1.9417 4.90835L4.00003 2.85835ZM4.00003 13.1417L1.95003 11.0917C1.62503 10.7667 1.10003 10.7667 0.775032 11.0917C0.450032 11.4167 0.450032 11.9417 0.775032 12.2667L3.4167 14.9167C3.7417 15.2417 4.2667 15.2417 4.5917 14.9167L7.23337 12.275C7.55837 11.95 7.55837 11.425 7.23337 11.1C6.90837 10.775 6.38337 10.775 6.05837 11.1L4.00003 13.1417Z" fill="#0085FF"/>
</svg>
