<svg width="14" height="14" viewBox="0 0 14 14" fill="none" xmlns="http://www.w3.org/2000/svg">
<path fill-rule="evenodd" clip-rule="evenodd" d="M9.66668 0.333332C11.8758 0.333332 13.6667 2.12419 13.6667 4.33333V9.66667C13.6667 11.8758 11.8758 13.6667 9.66668 13.6667H4.33334C2.1242 13.6667 0.333344 11.8758 0.333344 9.66667V4.33333C0.333344 2.12419 2.1242 0.333332 4.33334 0.333332H9.66668ZM9.00001 2.33333H5.00001C3.57188 2.33333 2.40596 3.45598 2.33661 4.86691L2.33334 5V9C2.33334 10.4281 3.45599 11.5941 4.86692 11.6634L5.00001 11.6667H9.00001C10.4281 11.6667 11.5941 10.544 11.6634 9.13309L11.6667 9V5C11.6667 3.57187 10.544 2.40595 9.1331 2.3366L9.00001 2.33333Z" fill="#969696"/>
</svg>
