<svg width="209" height="158" viewBox="0 0 209 158" fill="none" xmlns="http://www.w3.org/2000/svg">
<g clip-path="url(#clip0_2_14)">
<path d="M0.070343 158V130.165H208.982V158H0.070343Z" fill="#E51B21"/>
<path d="M105.954 7.44046C101.128 14.7833 96.3408 22.0622 91.5295 29.3746C89.6636 28.1548 87.6418 27.7066 85.4977 27.6944C81.1757 27.6639 78.1322 29.9997 76.4836 33.6955C75.788 35.2216 75.4432 36.8833 75.4742 38.5593C75.5262 40.828 76.0859 42.9839 77.4257 44.841C79.2609 47.3354 81.6834 48.8051 84.8278 49.0491C87.0148 49.2199 89.058 48.6832 91.1624 47.9544L105.468 70.2148C105.089 70.4892 104.752 70.7515 104.401 70.9893C100.465 73.6875 96.0406 75.5953 91.3735 76.6062C88.4096 77.2404 85.3684 77.4377 82.3471 77.1917C76.2694 76.6733 70.6261 74.8498 65.567 71.3735C60.3501 67.8031 56.1108 62.9897 53.2341 57.3708C51.1133 53.2451 49.7177 48.7874 49.1079 44.1915C48.7507 41.667 48.634 39.1144 48.7592 36.568C48.9928 31.0246 50.3956 25.5926 52.8763 20.6259C54.4403 17.4307 56.4234 14.457 58.7735 11.7828C62.0838 8.10469 66.1116 5.1382 70.6108 3.06461C73.9134 1.52202 77.4548 0.549689 81.0839 0.189055C87.1913 -0.497258 93.3698 0.523727 98.9285 3.13781C101.326 4.25984 103.589 5.64686 105.676 7.27275C105.753 7.32459 105.835 7.36118 105.954 7.44046Z" fill="#030305"/>
<path d="M118.11 29.0331L132.287 7.53196L125.292 3.05549C129.847 0.877854 134.867 -0.160407 139.915 0.0305254C147.526 0.268376 154.426 2.61638 160.489 7.51062L146.112 29.3502C144.945 28.6323 143.65 28.1447 142.298 27.9139C139.509 27.4565 136.838 27.734 134.477 29.4386C132.412 30.9176 131.189 33.0094 130.467 35.3879C129.115 39.8431 130.443 43.5999 133.715 46.7224C135.145 48.0611 136.986 48.8789 138.94 49.043C141.2 49.2717 142.95 48.982 145.669 47.9788C150.441 55.3644 155.194 62.7957 160.017 70.3032C158.577 71.1662 157.225 72.0475 155.806 72.8129C152.617 74.5705 149.181 75.841 145.614 76.5819C142.936 77.125 140.201 77.335 137.472 77.207C133.446 76.9992 129.492 76.0555 125.809 74.4229C125.703 74.3782 125.601 74.3262 125.503 74.2674C125.446 74.2197 125.396 74.1655 125.353 74.1058L131.889 70.2056L117.682 48.1526C116.666 48.4209 115.69 48.7167 114.696 48.9302C111.543 49.6011 108.619 49.1071 106.022 47.1158C104.911 46.2878 103.988 45.2348 103.313 44.0261C102.639 42.8174 102.229 41.4802 102.11 40.1023C101.871 37.9037 101.972 35.7661 102.883 33.7321C104.04 31.1524 105.774 29.0849 108.527 28.1213C110.668 27.3742 112.867 27.423 115.045 27.9688C116.051 28.2402 117.027 28.6549 118.11 29.0331Z" fill="#030305"/>
<path d="M72.0882 109.695C71.6385 113.9 71.192 118.108 70.7393 122.362H60.2172C61.4407 112.019 62.6642 101.709 63.9061 91.356H74.5321C76.2664 96.0307 78.016 100.742 79.8359 105.651C80.8851 103.172 81.6926 100.772 82.5888 98.4306C83.485 96.0887 84.3537 93.7223 85.2407 91.3438H95.8086C96.4724 96.4759 97.0321 101.629 97.6438 106.774C98.2556 111.918 98.8459 117.099 99.4424 122.264C98.8582 122.454 90.6149 122.524 88.9876 122.341C88.486 117.966 87.9762 113.574 87.4583 109.164L87.3145 109.134L82.6775 122.368H76.9577C75.9156 119.426 74.8849 116.496 73.8653 113.577C73.3881 112.223 72.9079 110.871 72.4246 109.521L72.235 108.939L72.1034 108.969L72.0882 109.695Z" fill="#030305"/>
<path d="M100.684 107.38C100.703 102.694 101.877 99.0313 104.569 95.9179C106.814 93.3229 109.671 91.722 112.962 90.8407C115.208 90.238 117.538 90.0082 119.859 90.1607C123.554 90.4016 127.032 91.3804 130.06 93.6095C133.22 95.8881 135.38 99.2898 136.095 103.111C136.86 106.951 136.517 110.704 134.853 114.266C133.379 117.407 130.871 119.95 127.745 121.472C125.317 122.67 122.669 123.361 119.963 123.502C117.444 123.699 114.911 123.428 112.491 122.704C107.08 121.045 103.296 117.629 101.48 112.217C100.939 110.662 100.67 109.026 100.684 107.38ZM124.236 106.935C124.08 106.045 123.992 105.139 123.75 104.273C123.579 103.586 123.25 102.948 122.789 102.41C122.328 101.871 121.748 101.446 121.095 101.169C119.837 100.647 118.448 100.526 117.119 100.821C116.254 100.953 115.445 101.328 114.787 101.903C114.129 102.478 113.65 103.228 113.406 104.066C112.736 105.994 112.772 108.096 113.506 110C113.746 110.681 114.151 111.292 114.684 111.78C115.218 112.268 115.864 112.617 116.565 112.796C117.872 113.168 119.256 113.168 120.563 112.796C121.249 112.614 121.88 112.27 122.403 111.792C122.926 111.314 123.325 110.717 123.567 110.052C123.942 109.049 124.164 107.995 124.224 106.926L124.236 106.935Z" fill="#030305"/>
<path d="M152.958 113.205H164.71V122.353H134.933L147.033 100.312C143.519 100.312 140.127 100.312 136.682 100.312V91.3682H164.63C160.749 98.6166 156.895 105.831 152.958 113.205Z" fill="#030305"/>
<path d="M167.462 91.3469H195.477C191.599 98.6318 187.757 105.85 183.854 113.171H195.664V122.377H165.716L178.14 100.333H167.462V91.3469Z" fill="#030305"/>
<path d="M36.1205 91.2188H48.3799C51.7813 101.568 55.1917 111.955 58.6114 122.377H47.9058C47.5235 121.069 47.132 119.737 46.7374 118.395H37.8977L36.7109 122.386H26.1644L36.1205 91.2188ZM44.7645 111.293C43.9693 108.457 43.1984 105.722 42.4276 102.989H42.2503C41.4795 105.734 40.7209 108.478 39.9256 111.281L44.7645 111.293Z" fill="#030305"/>
<path d="M24.6197 111.759V121.67C23.241 122.237 21.8055 122.656 20.3375 122.92C18.5765 123.256 16.7787 123.359 14.9908 123.225C9.60135 122.774 5.23348 120.572 2.3491 115.861C1.27674 114.07 0.574736 112.084 0.284455 110.018C-0.220236 106.722 -0.0550612 103.477 1.12867 100.324C2.96391 95.4727 6.39885 92.3959 11.3693 90.9749C13.2644 90.4328 15.2362 90.2061 17.2054 90.304C19.7429 90.4155 22.2424 90.9601 24.5952 91.9141V101.803C24.3536 101.699 24.1211 101.623 23.9131 101.498C22.0137 100.468 19.9888 100.211 17.863 100.428C17.0143 100.495 16.1824 100.702 15.4007 101.038C11.9719 102.562 10.5587 107.137 12.9139 110.518C14.0885 112.211 15.7922 112.988 17.7743 113.15C20.0622 113.339 22.292 113.086 24.2955 111.811C24.4006 111.779 24.5097 111.761 24.6197 111.759Z" fill="#040406"/>
<path d="M209.003 122.38H197.187V91.2768H209.003V122.38Z" fill="#020204"/>
<path d="M72.0882 109.695V108.969L72.2197 108.939L72.4093 109.521L72.0882 109.695Z" fill="#A2A2A3"/>
</g>
<defs>
<clipPath id="clip0_2_14">
<rect width="209" height="158" fill="white"/>
</clipPath>
</defs>
</svg>
